<?xml version="1.0" standalone="no"?>
<!DOCTYPE svg PUBLIC "-//W3C//DTD SVG 20010904//EN"
 "http://www.w3.org/TR/2001/REC-SVG-20010904/DTD/svg10.dtd">
<svg version="1.0" xmlns="http://www.w3.org/2000/svg"
 width="512.000000pt" height="516.000000pt" viewBox="0 0 512.000000 516.000000"
 preserveAspectRatio="xMidYMid meet">

<g transform="translate(0.000000,516.000000) scale(0.100000,-0.100000)"
fill="#000000" stroke="none">
<path d="M990 3843 c-163 -16 -272 -41 -382 -90 l-57 -25 58 -38 c104 -67 136
-127 156 -288 57 -454 315 -887 621 -1039 88 -45 143 -60 319 -88 88 -14 205
-37 259 -50 55 -14 101 -23 103 -21 2 2 8 52 13 112 5 60 17 146 26 192 l16
83 -27 42 c-215 329 -557 656 -849 813 -44 24 -73 44 -62 44 40 0 235 -74 346
-131 204 -105 416 -284 582 -492 l71 -87 58 120 c32 66 78 151 103 190 25 39
46 76 46 83 0 28 -99 158 -185 243 -189 186 -448 321 -746 388 -164 36 -344
52 -469 39z"/>
<path d="M3639 3830 c-169 -27 -349 -92 -495 -181 -348 -210 -675 -625 -804
-1019 -97 -298 -92 -642 15 -940 35 -96 132 -284 165 -319 41 -44 186 -66 430
-66 163 0 214 4 308 23 514 103 877 406 1148 957 69 141 122 291 151 425 14
65 18 127 17 265 -1 161 -3 190 -27 277 -43 164 -115 304 -217 427 -64 77 -92
92 -226 127 -80 21 -128 26 -254 29 -85 2 -180 0 -211 -5z"/>
</g>
</svg>
